# xmcd
#
# Track frame offsets:
#	150
#	18760
#	38447
#	51527
#	71437
#	89087
#	97715
#	117337
#	125915
#	136392
#	151715
#	170930
#	189602
#	204705
#	215100
#
# Disc length: 2945 seconds
#
# Revision: 1
# Processed by: cddbd v1.5.2PL0 Copyright (c) Steve Scherf et al.
# Submitted via: FairStars CD Ripper 1.27
#
DISCID=dc0b7f0f
DTITLE=זמירות שבת - זמירות שבת
DYEAR=2009
DGENRE=Country
TTITLE0=שלום עליכם
TTITLE1=אשת חיל
TTITLE2=מנוחה ושמחה
TTITLE3=מעין עולם הבא
TTITLE4=י-ה ריבון
TTITLE5=צור משלו
TTITLE6=רחם בחסדך
TTITLE7=ייבנה המקדש
TTITLE8=חי השם וברוך צורי
TTITLE9=מזמור לדוד
TTITLE10=ברוך א-ל עליון
TTITLE11=יום זה מכובד
TTITLE12=יום שבתון
TTITLE13=דרור יקרא
TTITLE14=שיר המעלות
EXTD=
EXTT0=
EXTT1=
EXTT2=
EXTT3=
EXTT4=
EXTT5=
EXTT6=
EXTT7=
EXTT8=
EXTT9=
EXTT10=
EXTT11=
EXTT12=
EXTT13=
EXTT14=
PLAYORDER=
